<svg xmlns="http://www.w3.org/2000/svg" width="1056.06" height="274.802" viewBox="0 0 1056.06 274.802">
  <g id="Titulo_Contacto" transform="translate(0 0.88)">
    <text id="CONTÁCTENOS" transform="translate(523.463 235.471)" fill="#d52626" font-size="135" font-family="Montreal-Heavy" font-weight="800"><tspan x="-474.93" y="0">CONTÁCTENOS</tspan></text>
    <path id="Trazado_1749" data-name="Trazado 1749" d="M3052.63,598.881l-33,.72-33,.545-66,1.075q-66,.842-132,1.391c-44,.442-88.007.54-132.009.8l-132.008.266-132.008-.252c-44-.269-88-.353-132.008-.8q-66-.486-132.008-1.392l-66-1.082-33-.547-33-.725,33-.725,33-.547,66-1.08q66.005-.842,132.008-1.394c44-.446,88-.53,132.008-.8l132.008-.252,132.008.264c44,.261,88,.36,132.009.8q66,.482,132,1.392l66,1.075,33,.545Z" transform="translate(-1996.57 -329.755)" fill="#fff"/>
    <path id="Trazado_1750" data-name="Trazado 1750" d="M3052.63,529.868l-33,.72-33,.545-66,1.075q-66,.838-132,1.391c-44,.442-88.007.54-132.009.8l-132.008.266-132.008-.252c-44-.269-88-.353-132.008-.8q-66-.486-132.008-1.394l-66-1.08-33-.547-33-.725,33-.725,33-.547,66-1.082q66.005-.839,132.008-1.392c44-.446,88-.53,132.008-.8l132.008-.252,132.008.266c44,.259,88,.357,132.009.8q66,.486,132,1.392l66,1.075,33,.545Z" transform="translate(-1996.57 -446.326)" fill="#fff"/>
    <g id="Grupo_853" data-name="Grupo 853" transform="translate(421.386 -0.88)">
      <g id="Grupo_851" data-name="Grupo 851">
        <path id="Trazado_1751" data-name="Trazado 1751" d="M2159.791,519.193l9.517,16.891L2151.689,528l-13.119,14.254,2.229-19.247-17.6-8.06,18.992-3.837,2.229-19.228,9.5,16.87,18.991-3.815Z" transform="translate(-2123.202 -491.885)" fill="#fff"/>
      </g>
      <g id="Grupo_852" data-name="Grupo 852" transform="translate(168.951)">
        <path id="Trazado_1752" data-name="Trazado 1752" d="M2225.727,523.01l2.229,19.247L2214.838,528l-17.6,8.081,9.5-16.891-13.118-14.254,18.991,3.815,9.5-16.87,2.25,19.228,18.992,3.837Z" transform="translate(-2193.618 -491.885)" fill="#fff"/>
      </g>
    </g>
    <g id="Grupo_855" data-name="Grupo 855" transform="translate(494.78 0)">
      <g id="Grupo_854" data-name="Grupo 854">
        <path id="Trazado_1753" data-name="Trazado 1753" d="M2203.434,526.164l8.468,26.108-22.186-16.14-22.207,16.118L2176,526.143,2153.791,510l27.458.022,8.488-26.108,8.467,26.108,27.458.022Z" transform="translate(-2153.791 -483.916)" fill="#fff"/>
      </g>
      <path id="Trazado_1754" data-name="Trazado 1754" d="M2182.482,526.164l8.468,26.108-22.186-16.14.021-52.216,8.467,26.108,27.458.022Z" transform="translate(-2132.839 -483.916)" fill="#e4e4e4"/>
    </g>
    <path id="Trazado_1755" data-name="Trazado 1755" d="M2212.136,523.01l2.229,19.247-11.036-24.244,5.184-26.128,2.25,19.228,18.992,3.837Z" transform="translate(-1589.69 -492.765)" fill="#e4e4e4"/>
    <path id="Trazado_1756" data-name="Trazado 1756" d="M2147.415,519.193l9.517,16.891-19.958-19.673-4.927-24.526,9.5,16.87,18.991-3.815Z" transform="translate(-1689.439 -492.765)" fill="#e4e4e4"/>
  </g>
</svg>
